<?xml version="1.0" encoding="UTF-8"?>
<svg id="Layer_2" xmlns="http://www.w3.org/2000/svg" viewBox="0 0 978.06 231.86">
  <g id="Layer_1-2" data-name="Layer_1">
    <g>
      <path d="M316.51,0v226.88h-44.82V0h44.82Z"/>
      <path d="M466.84,209.14c-12.45,12.45-33.61,22.41-60.69,22.41s-48.24-9.96-60.69-22.41c-14.01-14.01-20.85-33.92-20.85-51.66s6.85-37.66,20.85-51.66c12.45-12.45,33.61-22.41,60.69-22.41s48.24,9.96,60.69,22.41c14,14.01,20.85,33.92,20.85,51.66s-6.85,37.66-20.85,51.66ZM380.94,131.33c-6.54,6.54-10.27,14.94-10.27,26.14,0,12.76,4.98,20.85,10.27,26.14,5.6,5.6,13.69,9.96,25.52,9.96,9.96,0,18.36-3.42,24.9-9.96,6.54-6.54,10.27-14.94,10.27-26.14s-3.73-19.61-10.27-26.14c-6.54-6.53-14.94-9.96-25.21-9.96s-18.67,3.42-25.21,9.96Z"/>
      <path d="M643.61,226.88h-44.82v-16.81c-6.85,9.96-19.3,21.47-43.88,21.47-20.54,0-35.48-6.54-47.62-18.99-14.32-14.32-21.79-34.23-21.79-55.71,0-23.03,8.4-42.02,21.79-54.78,12.14-11.52,29.25-18.67,48.24-18.67,15.25,0,32.06,4.98,43.26,20.23V0h44.82v226.88ZM542.46,131.33c-6.54,6.22-10.89,15.25-10.89,26.45,0,10.27,4.36,19.3,10.89,25.52,6.85,6.54,15.56,9.65,23.34,9.65,8.4,0,18.36-3.42,25.52-10.27,5.29-4.98,10.27-13.38,10.27-24.9s-4.67-19.92-9.96-25.52c-7.16-7.47-15.56-10.27-25.21-10.27-9.03,0-16.81,2.49-23.96,9.34Z"/>
      <path d="M800.09,165.26h-103.64c0,7.47,2.8,17.43,8.4,23.65,6.85,7.47,16.18,8.71,23.03,8.71s13.38-1.24,18.05-4.05c.62-.31,5.91-3.74,9.65-11.52l42.33,4.36c-6.22,19.61-18.67,29.88-26.76,34.86-13.38,8.09-28.32,10.27-43.88,10.27-20.85,0-39.21-3.74-55.4-19.92-12.14-12.14-20.85-30.5-20.85-53.53,0-19.92,7.16-40.46,21.16-54.78,16.81-16.81,37.66-19.92,53.22-19.92s37.97,2.8,55.09,20.85c16.49,17.43,19.61,39.21,19.61,56.33v4.67ZM758.7,138.49c-.31-1.25-2.49-9.96-9.03-16.18-4.98-4.67-12.14-7.78-21.16-7.78-11.52,0-18.36,4.67-22.72,9.02-3.42,3.74-6.53,8.72-7.78,14.94h60.69Z"/>
      <path d="M832.63,88.08l35.17,74.38,35.17-74.38h49.17l-70.34,138.8h-28.01l-70.34-138.8h49.17Z"/>
      <path d="M949.74,175.22c15.87,0,28.32,12.45,28.32,28.32s-12.45,28.32-28.32,28.32-28.32-12.45-28.32-28.32,12.45-28.32,28.32-28.32Z"/>
      <path d="M246.8,98.35c-12.14-12.45-28.32-14.01-39.21-14.01-9.96,0-17.74.93-27.08,5.91-5.29,2.8-11.2,7.47-16.81,14.32V0h-44.82v173.38c-3.54,4.94-3.66,5.61-7.78,9.3-10.27,8.71-20.85,10.89-28.63,10.89-9.96,0-20.23-3.74-27.08-11.2-5.6-5.91-9.34-14.63-9.34-24.9,0-11.2,4.36-20.23,10.27-26.14,3.11-3.11,11.52-9.96,25.52-9.96,6.41,0,16.06,1.27,25.83,8v-39.7c-10.58-4.47-20.78-6.27-31.74-6.27-18.98,0-37.35,4.98-52.91,19.61C9.96,115.46,0,134.14,0,157.79c0,25.21,11.2,42.64,21.79,52.91,12.76,12.45,30.5,20.85,53.84,20.85,12.45,0,23.65-1.87,35.48-8.4,0,0,4.29-2.3,7.78-4.89,0,0,0,0,0,0v8.63h44.82v-69.4c0-6.85.31-20.23,9.34-28.94,2.49-2.49,8.09-6.85,17.74-6.85,6.54,0,13.38,2.18,17.43,6.22,7.16,6.85,7.47,18.05,7.47,27.7v71.27h44.82v-88.08c0-10.58-.93-27.7-13.69-40.46Z"/>
    </g>
  </g>
</svg>